<svg width="17" height="18" viewBox="0 0 17 18" fill="none" xmlns="http://www.w3.org/2000/svg">
<path fill-rule="evenodd" clip-rule="evenodd" d="M11.1491 9.92699C12.8586 7.47249 12.6373 4.0429 10.4853 1.84083C8.08663 -0.613609 4.19764 -0.613609 1.79899 1.84083C-0.599663 4.29526 -0.599663 8.27469 1.79899 10.7291C3.95102 12.9312 7.30266 13.1576 9.70137 11.4084L15.5523 17.3954L17 15.914L11.1491 9.92699ZM9.03757 3.32221C10.6367 4.9585 10.6367 7.61145 9.03757 9.24774C7.43846 10.884 4.84581 10.884 3.24671 9.24774C1.6476 7.61145 1.6476 4.9585 3.24671 3.32221C4.84581 1.68592 7.43846 1.68592 9.03757 3.32221Z" fill="#AEB1C1"/>
</svg>
